<svg width="541" height="272" viewBox="0 0 541 272" fill="none" xmlns="http://www.w3.org/2000/svg">
<line x1="346.5" y1="115" x2="346.5" y2="170" stroke="#606060" stroke-width="5"/>
<line x1="353.5" y1="115" x2="353.5" y2="170" stroke="#606060" stroke-width="5"/>
<line x1="390.5" y1="137" x2="390.5" y2="167" stroke="#606060" stroke-width="5"/>
<path d="M426 148L435 178" stroke="#606060" stroke-width="5" stroke-linecap="round"/>
<path d="M378 120C379.381 120 380.5 118.881 380.5 117.5C380.5 116.119 379.381 115 378 115V120ZM346 120H378V115H346V120Z" fill="#606060"/>
<path d="M197 172L386 172" stroke="#606060" stroke-width="5" stroke-linecap="round"/>
<path d="M336 167.5C337.381 167.5 338.5 166.381 338.5 165C338.5 163.619 337.381 162.5 336 162.5V167.5ZM196 167.5L336 167.5V162.5L196 162.5V167.5Z" fill="#606060"/>
<path d="M376 185.5L378.5 185.5L378.5 180.5L376 180.5L376 185.5ZM362 185.5L376 185.5L376 180.5L362 180.5L362 185.5Z" fill="#606060"/>
<path d="M334 185.5L336.5 185.5L336.5 180.5L334 180.5L334 185.5ZM275 185.5L334 185.5L334 180.5L275 180.5L275 185.5Z" fill="#606060"/>
<path d="M213 185.5L215.5 185.5L215.5 180.5L213 180.5L213 185.5ZM200 185.5L213 185.5L213 180.5L200 180.5L200 185.5Z" fill="#606060"/>
<path d="M121.386 188.577L118.963 189.19L120.19 194.037L122.614 193.423L121.386 188.577ZM197.614 174.423C198.952 174.084 199.763 172.724 199.423 171.386C199.084 170.048 197.724 169.237 196.386 169.577L197.614 174.423ZM122.614 193.423L197.614 174.423L196.386 169.577L121.386 188.577L122.614 193.423Z" fill="#606060"/>
<path d="M292.562 136.436L294.998 135.874L293.874 131.002L291.438 131.564L292.562 136.436ZM266.562 142.436L292.562 136.436L291.438 131.564L265.438 137.564L266.562 142.436Z" fill="#606060"/>
<path d="M283.659 163.878L284.537 166.219L289.219 164.463L288.341 162.122L283.659 163.878ZM277.659 147.878L283.659 163.878L288.341 162.122L282.341 146.122L277.659 147.878Z" fill="#606060"/>
<path d="M303.571 142.434L306.005 141.863L304.863 136.995L302.429 137.566L303.571 142.434ZM107.571 188.434L303.571 142.434L302.429 137.566L106.429 183.566L107.571 188.434Z" fill="#CF5F13"/>
<path d="M335.5 167V169.5H340.5V167H335.5ZM335.5 111V167H340.5V111H335.5Z" fill="#CF5F13"/>
<path d="M375.054 142.499C376.435 142.469 377.529 141.326 377.499 139.946C377.469 138.565 376.326 137.471 374.946 137.501L375.054 142.499ZM352.054 142.999L375.054 142.499L374.946 137.501L351.946 138.001L352.054 142.999Z" fill="#606060"/>
<path d="M373.069 140.081C373.39 141.424 374.739 142.253 376.081 141.931C377.424 141.61 378.253 140.261 377.931 138.919L373.069 140.081ZM367.569 117.081L373.069 140.081L377.931 138.919L372.432 115.919L367.569 117.081Z" fill="#606060"/>
<path d="M380.126 116.685C379.4 115.511 377.86 115.147 376.685 115.874C375.511 116.6 375.147 118.14 375.874 119.315L380.126 116.685ZM375.874 119.315L388.859 140.318L393.111 137.689L380.126 116.685L375.874 119.315Z" fill="#606060"/>
<path d="M392 139L425.985 148.021" stroke="#606060" stroke-width="5" stroke-linecap="round"/>
<circle cx="236" cy="186" r="10.5" stroke="black" stroke-width="7"/>
<circle cx="409" cy="186" r="10.5" stroke="black" stroke-width="7"/>
<path d="M386 186.564V175.564C386.5 171.064 390.8 161.364 404 158.564C417.2 155.764 427.5 164.064 431 168.564L435 178.064" stroke="#606060" stroke-width="5" stroke-linecap="round"/>
<line x1="123.635" y1="136.77" x2="215.715" y2="117.14" stroke="#818181" stroke-width="4"/>
<line x1="159.568" y1="155.913" x2="225.624" y2="142.178" stroke="#818181" stroke-width="4"/>
<path d="M253.132 119.245C254.236 119.25 255.135 118.358 255.14 117.253C255.144 116.149 254.252 115.25 253.148 115.245L253.132 119.245ZM215.132 119.092L253.132 119.245L253.148 115.245L215.148 115.092L215.132 119.092Z" fill="#818181"/>
<line x1="146.81" y1="113.847" x2="192.842" y2="106.032" stroke="#818181" stroke-width="4"/>
<line x1="122.64" y1="138.306" x2="147.74" y2="113.407" stroke="#818181" stroke-width="4"/>
<path d="M193.041 104.193C192.043 103.72 190.85 104.145 190.377 105.143C189.904 106.141 190.33 107.334 191.328 107.807L193.041 104.193ZM191.328 107.807L215.177 119.114L216.89 115.5L193.041 104.193L191.328 107.807Z" fill="#818181"/>
<path d="M119 151.706L124.956 162.73" stroke="#818181" stroke-width="4" stroke-linecap="round"/>
<path d="M123.056 137.722L119 151.706" stroke="#818181" stroke-width="4" stroke-linecap="round"/>
<line x1="172.149" y1="108.607" x2="175.073" y2="127.619" stroke="#818181" stroke-width="4"/>
<path d="M124.637 160.755C123.547 160.931 122.805 161.958 122.981 163.048C123.157 164.139 124.184 164.88 125.274 164.704L124.637 160.755ZM136.937 158.771L124.637 160.755L125.274 164.704L137.574 162.72L136.937 158.771Z" fill="#818181"/>
<line x1="258.425" y1="135.235" x2="247.417" y2="137.19" stroke="#818181" stroke-width="4"/>
<circle cx="148.968" cy="159.826" r="11" transform="rotate(0.230638 148.968 159.826)" stroke="#818181" stroke-width="4"/>
<circle cx="235.051" cy="139.173" r="11" transform="rotate(0.230638 235.051 139.173)" stroke="#818181" stroke-width="4"/>
<path d="M256.743 135.411C256.583 136.504 257.339 137.52 258.432 137.679C259.525 137.839 260.541 137.083 260.7 135.99L256.743 135.411ZM252.745 119.572C253.874 119.883 258.546 123.074 256.743 135.411L260.7 135.99C262.621 122.855 257.86 116.83 253.806 115.715L252.745 119.572Z" fill="#818181"/>
</svg>
