<svg width="345" height="242" viewBox="0 0 345 242" fill="none" xmlns="http://www.w3.org/2000/svg">
<path d="M256.204 192.243L167.5 204.99L78.7955 192.243L24.4149 159.142V118.858L78.7955 85.7566L167.5 73.0103L256.204 85.7566L310.585 118.858V159.142L256.204 192.243Z" fill="#EEEDED" stroke="black" stroke-width="2"/>
<mask id="path-2-inside-1_4_3811" fill="white">
<path d="M23 52H312V160H23V52Z"/>
</mask>
<path d="M23 52H312V160H23V52Z" fill="white"/>
<path d="M23 52V50H21V52H23ZM312 52H314V50H312V52ZM23 54H312V50H23V54ZM310 52V160H314V52H310ZM25 160V52H21V160H25Z" fill="black" mask="url(#path-2-inside-1_4_3811)"/>
<line x1="204.5" y1="75" x2="204.5" y2="130" stroke="#606060" stroke-width="5"/>
<line x1="211.5" y1="75" x2="211.5" y2="130" stroke="#606060" stroke-width="5"/>
<line x1="248.5" y1="97" x2="248.5" y2="127" stroke="#606060" stroke-width="5"/>
<path d="M284 108L293 138" stroke="#606060" stroke-width="5" stroke-linecap="round"/>
<path d="M236 80C237.381 80 238.5 78.8807 238.5 77.5C238.5 76.1193 237.381 75 236 75V80ZM204 80H236V75H204V80Z" fill="#606060"/>
<path d="M56 132L242 132" stroke="#606060" stroke-width="5" stroke-linecap="square"/>
<path d="M194 127.5C195.381 127.5 196.5 126.381 196.5 125C196.5 123.619 195.381 122.5 194 122.5V127.5ZM54 127.5L194 127.5V122.5L54 122.5V127.5Z" fill="#606060"/>
<path d="M234 145.5L236.5 145.5L236.5 140.5L234 140.5L234 145.5ZM220 145.5L234 145.5L234 140.5L220 140.5L220 145.5Z" fill="#606060"/>
<path d="M192 145.5L194.5 145.5L194.5 140.5L192 140.5L192 145.5ZM128 145.5L192 145.5L192 140.5L128 140.5L128 145.5Z" fill="#606060"/>
<path d="M69 145.5L71.5 145.5L71.5 140.5L69 140.5L69 145.5ZM56 145.5L69 145.5L69 140.5L56 140.5L56 145.5Z" fill="#606060"/>
<path d="M183 118.5H185.5V113.5H183V118.5ZM33 118.5H183V113.5H33V118.5Z" fill="#CF5F13"/>
<path d="M193.5 127V129.5H198.5V127H193.5ZM193.5 71V127H198.5V71H193.5Z" fill="#CF5F13"/>
<path d="M233.054 102.499C234.435 102.469 235.529 101.326 235.499 99.9457C235.469 98.5653 234.326 97.4706 232.946 97.5006L233.054 102.499ZM210.054 102.999L233.054 102.499L232.946 97.5006L209.946 98.0006L210.054 102.999Z" fill="#606060"/>
<path d="M231.069 100.081C231.39 101.424 232.739 102.253 234.081 101.931C235.424 101.61 236.253 100.261 235.931 98.9186L231.069 100.081ZM225.569 77.0814L231.069 100.081L235.931 98.9186L230.432 75.9186L225.569 77.0814Z" fill="#606060"/>
<path d="M238.126 76.6854C237.4 75.511 235.86 75.1475 234.685 75.8736C233.511 76.5996 233.147 78.1402 233.874 79.3146L238.126 76.6854ZM233.874 79.3146L246.859 100.318L251.111 97.6889L238.126 76.6854L233.874 79.3146Z" fill="#606060"/>
<path d="M250 99L283.985 108.021" stroke="#606060" stroke-width="5" stroke-linecap="round"/>
<circle cx="94" cy="146" r="10.5" stroke="black" stroke-width="7"/>
<circle cx="267" cy="146" r="10.5" stroke="black" stroke-width="7"/>
<path d="M244 146.564V135.564C244.5 131.064 248.8 121.364 262 118.564C275.2 115.764 285.5 124.064 289 128.564L293 138.064" stroke="#606060" stroke-width="5" stroke-linecap="round"/>
</svg>
