<?xml version="1.0" encoding="UTF-8" standalone="no"?>
<!-- Created with Inkscape (http://www.inkscape.org/) -->

<svg
   width="1000.0px"
   height="1000.0px"
   viewBox="0 0 1000.0 1000.0"
   version="1.1"
   id="SVGRoot"
   sodipodi:docname="3.svg"
   inkscape:version="1.1 (c68e22c387, 2021-05-23)"
   xmlns:inkscape="http://www.inkscape.org/namespaces/inkscape"
   xmlns:sodipodi="http://sodipodi.sourceforge.net/DTD/sodipodi-0.dtd"
   xmlns="http://www.w3.org/2000/svg"
   xmlns:svg="http://www.w3.org/2000/svg">
  <sodipodi:namedview
     id="namedview14"
     pagecolor="#505050"
     bordercolor="#eeeeee"
     borderopacity="1"
     inkscape:pageshadow="0"
     inkscape:pageopacity="0"
     inkscape:pagecheckerboard="0"
     inkscape:document-units="px"
     showgrid="true"
     inkscape:zoom="0.67"
     inkscape:cx="423.13433"
     inkscape:cy="499.25373"
     inkscape:window-width="1920"
     inkscape:window-height="1051"
     inkscape:window-x="-9"
     inkscape:window-y="-9"
     inkscape:window-maximized="1"
     inkscape:current-layer="layer1"
     inkscape:snap-to-guides="true">
    <inkscape:grid
       type="xygrid"
       id="grid20" />
  </sodipodi:namedview>
  <defs
     id="defs9" />
  <g
     inkscape:label="Layer 1"
     inkscape:groupmode="layer"
     id="layer1">
    <path
       style="fill:none;stroke:#000000;stroke-width:1px;stroke-linecap:butt;stroke-linejoin:miter;stroke-opacity:1"
       d="M 304,230 H 804 L 784,330 H 584 L 544,530 H 444 L 484,330 H 284 Z"
       id="path265" />
    <path
       style="fill:none;stroke:#000000;stroke-width:1px;stroke-linecap:butt;stroke-linejoin:miter;stroke-opacity:1"
       d="M 424,630 404,730 H 604 704 L 764,430 H 664 l -40,200 z"
       id="path267" />
    <path
       style="fill:none;stroke:#000000;stroke-width:1px;stroke-linecap:butt;stroke-linejoin:miter;stroke-opacity:1"
       d="M 304,730 H 204 l 60,-300 h 100 z"
       id="path269" />
    <path
       style="fill:none;stroke:#000000;stroke-width:1px;stroke-linecap:butt;stroke-linejoin:miter;stroke-opacity:1"
       d="M 4,20 V 1020 H 1004 V 20 Z"
       id="path5242" />
    <path
       style="fill:#e2e3db;stroke-width:1.49254"
       d="m 206.23857,726.34328 c -1.3e-4,-1.02612 13.197,-67.85447 29.32695,-148.50746 L 264.8927,431.19403 h 48.81053 48.81053 l -28.12524,140.67164 c -15.46888,77.3694 -28.85001,144.19776 -29.73583,148.50746 l -1.61059,7.83583 h -48.40165 c -37.72616,0 -48.4017,-0.4115 -48.40188,-1.86568 z"
       id="path5464" />
    <path
       style="fill:#e2e3db;stroke-width:1.49254"
       d="m 446.53731,526.31073 c 0,-1.04403 8.73135,-45.52564 19.40299,-98.84804 10.67164,-53.3224 19.40298,-97.4682 19.40298,-98.10178 0,-0.63357 -44.88297,-1.15195 -99.73995,-1.15195 h -99.73994 l 7.93583,-40.67165 c 4.36471,-22.3694 8.66097,-44.19776 9.54726,-48.50746 l 1.61142,-7.83582 h 248.40165 c 136.6209,0 248.4303,0.50373 248.46532,1.1194 0.0351,0.61567 -4.14944,22.44403 -9.29877,48.50747 l -9.36243,47.38806 H 683.11996 583.07624 l -19.97642,100 -19.97643,100 h -48.29303 c -38.08115,0 -48.29305,-0.40139 -48.29305,-1.89823 z"
       id="path5503" />
    <path
       style="fill:#2ca05a;stroke-width:1.49254"
       d="m 406.17514,727.08955 c -0.035,-0.61567 4.14942,-22.44403 9.29876,-48.50746 l 9.36243,-47.38806 h 100.04372 100.04371 l 19.97642,-100 19.97643,-100 h 48.81858 48.81857 l -28.12524,140.67164 c -15.46888,77.3694 -28.85001,144.19776 -29.73583,148.50746 l -1.6106,7.83583 H 554.64045 c -81.6209,0 -148.43029,-0.50374 -148.46531,-1.11941 z"
       id="path5542" />
    <path
       style="fill:#217844;stroke-width:1.49254"
       d="m 473.77612,727.09624 c -59.85757,-0.37237 -66.04478,-0.63855 -66.04478,-2.8413 0,-2.51707 15.96949,-85.825 17.33837,-90.44897 0.72644,-2.45385 6.81995,-2.61194 100.67266,-2.61194 54.94467,0 99.93217,-0.50373 99.97218,-1.1194 0.04,-0.61567 8.97175,-45.44776 19.8483,-99.62687 l 19.77557,-98.50746 48.06213,-0.39381 c 37.97269,-0.31114 48.04729,0.002 47.99136,1.49254 -0.0389,1.03749 -13.30384,67.70724 -29.47761,148.155 l -29.40684,146.26866 -81.34328,0.0222 c -44.73881,0.0119 -111.06343,-0.16269 -147.38806,-0.38866 z"
       id="path5694" />
    <path
       style="fill:#2ca05a;stroke-width:1.49254"
       d="m 419.29851,725.60963 c -9.34833,-0.4845 -10.07463,-0.76818 -10.07463,-3.93502 0,-2.99468 13.70989,-76.80121 15.90612,-85.62983 1.00141,-4.02557 -11.04764,-3.50856 109.39552,-4.69415 l 91.71955,-0.90287 19.77486,-98.50746 c 10.87617,-54.17911 19.80759,-98.67537 19.84761,-98.8806 0.04,-0.20522 21.22947,-0.37313 47.08768,-0.37313 44.08251,0 47.01493,0.1657 47.01493,2.65665 0,2.70859 -56.10321,284.00174 -57.5927,288.76126 -0.77152,2.46531 -8.45748,2.59552 -136.91087,2.31961 -74.85139,-0.16078 -140.62703,-0.52728 -146.16807,-0.81446 z"
       id="path5963" />
    <path
       style="fill:#dbe3db;stroke-width:1.49254"
       d="m 411.69041,718.4927 c -2.65975,-1.55385 -1.93942,-6.63352 9.13465,-64.41695 l 4.7681,-24.87948 6.94754,-0.81082 c 3.82114,-0.44596 48.92515,-1.2427 100.23112,-1.77054 51.30597,-0.52785 93.37521,-1.05676 93.48719,-1.17537 0.11194,-0.11866 9.06082,-44.20181 19.8863,-97.96266 10.82548,-53.76085 19.97539,-98.03969 20.33313,-98.39743 1.2928,-1.29279 57.36372,-1.97307 74.47968,-0.90363 l 17.5295,1.09529 -1.00325,7.5628 c -1.69876,12.8059 -54.42078,276.23539 -55.99994,279.80788 L 700,720 557.05755,719.9546 c -87.39522,-0.0278 -143.88468,-0.59587 -145.36714,-1.46193 z"
       id="path6132" />
    <path
       style="fill:#2ca05a;stroke-width:1.49254"
       d="M -12.1267,499.79104 V 0.53731 H 487.127 986.3807 V 499.79104 999.0448 H 487.127 -12.1267 Z M 289.93201,708.37313 C 292.93719,698.14411 345.86058,427.91395 347.078,416.58208 L 348,408 h -51.60458 c -47.85491,0 -51.66127,0.18979 -52.38493,2.61194 -0.69104,2.31301 -43.99555,222.08059 -53.82218,273.14409 -2.09416,10.88222 -3.80758,21.46058 -3.80758,23.50746 v 3.72158 h 51.39196 c 47.65737,0 51.44773,-0.18981 52.15932,-2.61194 z m 400,0 C 692.93719,698.14411 745.86058,427.91395 747.078,416.58208 L 748,408 H 696.45664 644.9133 l -0.79852,3.3582 c -0.4392,1.84702 -9.30777,46.00747 -19.70796,98.13433 -10.40018,52.12687 -19.20873,95.08387 -19.57454,95.46 -0.3658,0.37615 -45.24588,1.04779 -99.7335,1.49254 -54.48763,0.44476 -99.49266,1.23337 -100.01117,1.75246 -1.34749,1.349 -17.13201,82.29197 -18.22528,93.45918 l -0.91326,9.32836 h 151.6078 c 143.10101,0 151.65083,-0.14657 152.37514,-2.61194 z m -159.70931,-200 c 0.41775,-1.43657 9.23364,-45.26119 19.59087,-97.38806 10.35722,-52.12687 19.17312,-95.95149 19.59086,-97.38806 0.7136,-2.45394 6.79624,-2.61194 100.55839,-2.61194 93.75218,0 99.84645,-0.15825 100.58452,-2.61194 2.52414,-8.39133 17.37084,-91.43052 17.01188,-95.14925 l -0.43222,-4.47762 -250.18678,-0.37747 c -199.04101,-0.30032 -250.48797,0.004 -251.66007,1.49253 -1.45093,1.84165 -19.88145,93.42739 -19.8243,98.51181 0.0276,2.46109 5.76194,2.61194 99.28309,2.61194 54.58955,0 99.25373,0.20939 99.25373,0.46533 0,0.25592 -8.73134,43.67746 -19.40298,96.49231 -10.67165,52.81485 -19.40299,97.60545 -19.40299,99.53467 v 3.50769 h 52.13823 c 48.37108,0 52.1931,-0.18872 52.89777,-2.61194 z"
       id="path6093" />
    <path
       style="fill:#4d4d4d;stroke-width:1.49254"
       d="m 414.74755,209.1622 c -42.90798,-0.0658 -85.81032,0.60962 -128.71094,1.32054 -7.51979,32.02537 -14.09523,64.4407 -19.27472,96.88375 3.14367,4.38951 11.22748,0.73811 15.87279,2.03475 8.77048,-0.6488 5.1466,-16.39557 8.68058,-23.42313 3.94044,-19.01406 7.29135,-38.38052 11.59985,-57.17389 155.61683,-0.35256 311.24505,0.77371 466.85452,-0.74396 4.84055,-0.56372 10.43009,0.45252 14.82692,-1.64935 -0.14739,-4.75657 5.82755,-15.80026 -0.34686,-15.93456 -123.16684,-0.56426 -246.33321,-1.49354 -369.50214,-1.31415 z"
       id="path9020" />
    <path
       style="fill:#4d4d4d;stroke-width:1.49254"
       d="m 468.42059,330.91476 c -4.65966,-0.79827 -9.57803,1.14055 -8.9698,6.75723 -11.26556,56.5551 -22.98723,113.1141 -32.97866,169.86649 4.10338,4.03536 12.06539,0.81456 17.46444,1.74324 6.65763,-0.17496 3.11915,-11.93609 5.99851,-16.42168 10.46417,-53.70241 21.85874,-107.44884 31.9475,-161.08823 -3.94793,-1.76683 -9.16009,-0.45358 -13.46199,-0.85705 z"
       id="path9059" />
    <path
       style="fill:#4d4d4d;stroke-width:1.49254"
       d="m 302.03766,408.59667 c -18.97909,0.61225 -38.20355,-0.89767 -57.00793,2.13094 -19.41283,97.99969 -39.64753,195.9099 -57.26639,294.21894 -2.82492,8.71123 10.92673,2.86299 16.04963,4.34391 6.73395,-1.18667 3.49881,-13.79227 6.52882,-19.20792 17.56786,-86.80079 34.5571,-173.94717 52.48762,-260.53205 26.89554,-1.00731 54.24961,1.00029 80.88853,-2.20091 2.60819,-5.57079 2.0056,-12.73504 3.2999,-18.84037 -14.99339,0.0292 -29.98678,0.0583 -44.98018,0.0875 z"
       id="path9137" />
    <path
       style="fill:#4d4d4d;stroke-width:1.49254"
       d="m 645.09387,411.62838 c -13.50468,64.05385 -25.21172,128.52781 -39.65427,192.3595 -3.10582,3.62343 -10.03809,0.62428 -14.35273,1.91196 -61.78255,1.55398 -123.58497,2.2262 -185.38491,2.60646 -7.17906,33.40161 -14.35211,66.95606 -18.48181,100.89494 6.09509,-1.34315 14.77531,2.43719 19.6566,-2.12803 6.23083,-25.9892 9.27115,-53.00197 17.52565,-78.38154 50.94614,-4.74479 102.36457,-2.10248 153.49654,-3.82751 15.2866,-0.35052 30.57079,-0.79841 45.85631,-1.19231 13.35135,-64.19272 24.30453,-128.94664 39.79127,-192.65975 2.23744,-5.60494 10.89018,-2.28612 15.49606,-3.63362 21.67927,-0.93236 44.1176,0.85258 65.37206,-1.58443 1.36709,-5.66184 1.79649,-11.66172 2.60612,-17.48484 -33.73466,0 -67.4693,0 -101.20394,0 -0.24098,1.03973 -0.48197,2.07945 -0.72295,3.11917 z"
       id="path9176" />
  </g>
</svg>
