<?xml version="1.0" encoding="UTF-8" standalone="no"?>
<!-- Created with Inkscape (http://www.inkscape.org/) -->

<svg
   width="160.0px"
   height="160.0px"
   viewBox="0 0 160.0 160.0"
   version="1.1"
   id="SVGRoot"
   sodipodi:docname="fav.svg"
   inkscape:version="1.1 (c68e22c387, 2021-05-23)"
   xmlns:inkscape="http://www.inkscape.org/namespaces/inkscape"
   xmlns:sodipodi="http://sodipodi.sourceforge.net/DTD/sodipodi-0.dtd"
   xmlns="http://www.w3.org/2000/svg"
   xmlns:svg="http://www.w3.org/2000/svg">
  <sodipodi:namedview
     id="namedview111"
     pagecolor="#505050"
     bordercolor="#eeeeee"
     borderopacity="1"
     inkscape:pageshadow="0"
     inkscape:pageopacity="0"
     inkscape:pagecheckerboard="0"
     inkscape:document-units="px"
     showgrid="true"
     inkscape:zoom="2.6832492"
     inkscape:cx="-49.007749"
     inkscape:cy="77.331618"
     inkscape:window-width="1920"
     inkscape:window-height="1051"
     inkscape:window-x="-9"
     inkscape:window-y="-9"
     inkscape:window-maximized="1"
     inkscape:current-layer="layer1">
    <inkscape:grid
       type="xygrid"
       id="grid117" />
  </sodipodi:namedview>
  <defs
     id="defs106" />
  <g
     inkscape:label="Layer 1"
     inkscape:groupmode="layer"
     id="layer1">
    <path
       style="fill:none;stroke:#000000;stroke-width:1px;stroke-linecap:butt;stroke-linejoin:miter;stroke-opacity:1"
       d="M 15,140 H 35 L 55,60 H 35 l -20,80"
       id="path175" />
    <path
       style="fill:none;stroke:#000000;stroke-width:1px;stroke-linecap:butt;stroke-linejoin:miter;stroke-opacity:1"
       d="m 55,140 h 60 l 20,-80 h -20 l -15,60 H 60 l -5,20"
       id="path177" />
    <path
       style="fill:none;stroke:#000000;stroke-width:1px;stroke-linecap:butt;stroke-linejoin:miter;stroke-opacity:1"
       d="M 85,100 H 65 L 80,40 H 40 l 5,-20 h 100 l -5,20 h -40 l -15,60"
       id="path179" />
    <path
       style="fill:none;stroke:#000000;stroke-width:1px;stroke-linecap:butt;stroke-linejoin:miter;stroke-opacity:1"
       d="M 50,0 45,20"
       id="path238" />
    <path
       style="fill:none;stroke:#000000;stroke-width:1px;stroke-linecap:butt;stroke-linejoin:miter;stroke-opacity:1"
       d="m 15,140 -5,20"
       id="path240" />
    <path
       style="fill:none;stroke:#000000;stroke-width:1px;stroke-linecap:butt;stroke-linejoin:miter;stroke-opacity:1"
       d="m 35,140 -5,20"
       id="path242" />
    <path
       style="fill:none;stroke:#000000;stroke-width:1px;stroke-linecap:butt;stroke-linejoin:miter;stroke-opacity:1"
       d="m 55,140 -5,20"
       id="path244" />
    <path
       style="fill:none;stroke:#000000;stroke-width:1px;stroke-linecap:butt;stroke-linejoin:miter;stroke-opacity:1"
       d="M 85,20 90,0"
       id="path246" />
    <path
       style="fill:none;stroke:#000000;stroke-width:1px;stroke-linecap:butt;stroke-linejoin:miter;stroke-opacity:1"
       d="M 65,20 70,0"
       id="path248" />
    <path
       style="fill:none;stroke:#000000;stroke-width:1px;stroke-linecap:butt;stroke-linejoin:miter;stroke-opacity:1"
       d="M 105,20 110,0"
       id="path250" />
    <path
       style="fill:none;stroke:#000000;stroke-width:1px;stroke-linecap:butt;stroke-linejoin:miter;stroke-opacity:1"
       d="M 125,20 130,0"
       id="path252" />
    <path
       style="fill:none;stroke:#000000;stroke-width:1px;stroke-linecap:butt;stroke-linejoin:miter;stroke-opacity:1"
       d="M 145,20 150,0"
       id="path254" />
    <path
       style="fill:none;stroke:#000000;stroke-width:1px;stroke-linecap:butt;stroke-linejoin:miter;stroke-opacity:1"
       d="m 70,160 5,-20"
       id="path256" />
    <path
       style="fill:none;stroke:#000000;stroke-width:1px;stroke-linecap:butt;stroke-linejoin:miter;stroke-opacity:1"
       d="m 90,160 5,-20"
       id="path258" />
    <path
       style="fill:none;stroke:#000000;stroke-width:1px;stroke-linecap:butt;stroke-linejoin:miter;stroke-opacity:1"
       d="m 110,160 5,-20"
       id="path260" />
    <path
       style="fill:none;stroke:#000000;stroke-width:1px;stroke-linecap:butt;stroke-linejoin:miter;stroke-opacity:1"
       d="M 40,40 H 30"
       id="path262" />
    <path
       style="fill:none;stroke:#000000;stroke-width:1px;stroke-linecap:butt;stroke-linejoin:miter;stroke-opacity:1"
       d="m 140,40 h 10"
       id="path264" />
    <path
       style="fill:none;stroke:#000000;stroke-width:1px;stroke-linecap:butt;stroke-linejoin:miter;stroke-opacity:1"
       d="M 35,20 H 45"
       id="path266" />
    <path
       style="fill:none;stroke:#000000;stroke-width:1px;stroke-linecap:butt;stroke-linejoin:miter;stroke-opacity:1"
       d="m 145,20 h 10"
       id="path268" />
    <path
       style="fill:none;stroke:#000000;stroke-width:1px;stroke-linecap:butt;stroke-linejoin:miter;stroke-opacity:1"
       d="m 135,60 h 10"
       id="path270" />
    <path
       style="fill:none;stroke:#000000;stroke-width:1px;stroke-linecap:butt;stroke-linejoin:miter;stroke-opacity:1"
       d="M 35,60 H 25"
       id="path272" />
    <path
       style="fill:none;stroke:#000000;stroke-width:1px;stroke-linecap:butt;stroke-linejoin:miter;stroke-opacity:1"
       d="M 15,140 H 10 5"
       id="path274" />
    <path
       style="fill:none;stroke:#000000;stroke-width:1px;stroke-linecap:butt;stroke-linejoin:miter;stroke-opacity:1"
       d="m 115,140 h 10"
       id="path276" />
    <path
       style="fill:none;stroke:#000000;stroke-width:1px;stroke-linecap:butt;stroke-linejoin:miter;stroke-opacity:1"
       d="m 125,100 c 10,0 10,0 10,0"
       id="path278" />
    <path
       style="fill:none;stroke:#000000;stroke-width:1px;stroke-linecap:butt;stroke-linejoin:miter;stroke-opacity:1"
       d="M 25,100 H 15"
       id="path280" />
    <path
       style="fill:none;stroke:#000000;stroke-width:1px;stroke-linecap:butt;stroke-linejoin:miter;stroke-opacity:1"
       d="M 20,120 H 10"
       id="path282" />
    <path
       style="fill:none;stroke:#000000;stroke-width:1px;stroke-linecap:butt;stroke-linejoin:miter;stroke-opacity:1"
       d="m 120,120 h 5 5"
       id="path284" />
    <path
       style="fill:none;stroke:#000000;stroke-width:1px;stroke-linecap:butt;stroke-linejoin:miter;stroke-opacity:1"
       d="M 30,80 H 20"
       id="path286" />
    <path
       style="fill:none;stroke:#000000;stroke-width:1px;stroke-linecap:butt;stroke-linejoin:miter;stroke-opacity:1"
       d="m 130,80 h 10"
       id="path288" />
    <path
       style="fill:none;stroke:#000000;stroke-width:1px;stroke-linecap:butt;stroke-linejoin:miter;stroke-opacity:1"
       d="m 115,60 h -5"
       id="path290" />
    <path
       style="fill:none;stroke:#000000;stroke-width:1px;stroke-linecap:butt;stroke-linejoin:miter;stroke-opacity:1"
       d="m 60,120 1,-4"
       id="path292" />
    <path
       style="fill:none;stroke:#000000;stroke-width:1px;stroke-linecap:butt;stroke-linejoin:miter;stroke-opacity:1"
       d="M 60,120 H 56"
       id="path298" />
    <path
       style="fill:none;stroke:#000000;stroke-width:1px;stroke-linecap:butt;stroke-linejoin:miter;stroke-opacity:1"
       d="M 55,140 H 50"
       id="path300" />
    <path
       style="fill:none;stroke:#000000;stroke-width:1px;stroke-linecap:butt;stroke-linejoin:miter;stroke-opacity:1"
       d="m 35,140 h 5"
       id="path302" />
    <path
       style="fill:none;stroke:#000000;stroke-width:1px;stroke-linecap:butt;stroke-linejoin:miter;stroke-opacity:1"
       d="m 55,60 h 5"
       id="path304" />
    <path
       style="fill:none;stroke:#000000;stroke-width:1px;stroke-linecap:butt;stroke-linejoin:miter;stroke-opacity:1"
       d="M 65,100 H 60"
       id="path306" />
    <path
       style="fill:none;stroke:#000000;stroke-width:1px;stroke-linecap:butt;stroke-linejoin:miter;stroke-opacity:1"
       d="m 85,100 h 5"
       id="path308" />
    <path
       style="fill:none;stroke:#000000;stroke-width:1px;stroke-linecap:butt;stroke-linejoin:miter;stroke-opacity:1"
       d="M 75,60 H 70"
       id="path310" />
    <path
       style="fill:none;stroke:#000000;stroke-width:1px;stroke-linecap:butt;stroke-linejoin:miter;stroke-opacity:1"
       d="m 95,60 h 5"
       id="path312" />
    <path
       style="fill:none;stroke:#000000;stroke-width:1px;stroke-linecap:butt;stroke-linejoin:miter;stroke-opacity:1"
       d="M 70,80 H 65"
       id="path314" />
    <path
       style="fill:none;stroke:#000000;stroke-width:1px;stroke-linecap:butt;stroke-linejoin:miter;stroke-opacity:1"
       d="m 90,80 h 5"
       id="path316" />
    <path
       style="fill:none;stroke:#000000;stroke-width:1px;stroke-linecap:butt;stroke-linejoin:miter;stroke-opacity:1"
       d="m 110,80 h -5"
       id="path318" />
    <path
       style="fill:none;stroke:#000000;stroke-width:1px;stroke-linecap:butt;stroke-linejoin:miter;stroke-opacity:1"
       d="m 105,100 h -5"
       id="path320" />
    <path
       style="fill:none;stroke:#000000;stroke-width:1px;stroke-linecap:butt;stroke-linejoin:miter;stroke-opacity:1"
       d="m 45,100 h 5"
       id="path322" />
    <path
       style="fill:none;stroke:#000000;stroke-width:1px;stroke-linecap:butt;stroke-linejoin:miter;stroke-opacity:1"
       d="m 50,80 h 5"
       id="path324" />
    <path
       style="fill:none;stroke:#000000;stroke-width:1px;stroke-linecap:butt;stroke-linejoin:miter;stroke-opacity:1"
       d="m 40,120 h 5"
       id="path326" />
    <path
       style="fill:none;stroke:#000000;stroke-width:1px;stroke-linecap:butt;stroke-linejoin:miter;stroke-opacity:1"
       d="M 15,100 H 10"
       id="path328" />
    <path
       style="fill:none;stroke:#000000;stroke-width:1px;stroke-linecap:butt;stroke-linejoin:miter;stroke-opacity:1"
       d="m 140,80 h 5"
       id="path330" />
    <path
       style="fill:none;stroke:#000000;stroke-width:1px;stroke-linecap:butt;stroke-linejoin:miter;stroke-opacity:1"
       d="M 30,40 H 20"
       id="path332" />
    <path
       style="fill:none;stroke:#000000;stroke-width:1px;stroke-linecap:butt;stroke-linejoin:miter;stroke-opacity:1"
       d="m 80,120 1,-4"
       id="path336" />
    <path
       style="fill:none;stroke:#000000;stroke-width:1px;stroke-linecap:butt;stroke-linejoin:miter;stroke-opacity:1"
       d="m 110,80 6,-24"
       id="path338" />
    <path
       style="fill:none;stroke:#000000;stroke-width:1px;stroke-linecap:butt;stroke-linejoin:miter;stroke-opacity:1"
       d="m 130,80 6,-24"
       id="path340" />
    <path
       style="fill:none;stroke:#000000;stroke-width:1px;stroke-linecap:butt;stroke-linejoin:miter;stroke-opacity:1"
       d="M 30,80 36,56"
       id="path342" />
    <path
       style="fill:none;stroke:#000000;stroke-width:1px;stroke-linecap:butt;stroke-linejoin:miter;stroke-opacity:1"
       d="m 56,56 -1,4"
       id="path344" />
    <path
       style="fill:#000000;stroke-width:0.372683"
       d="m 25.405684,101.27647 c 5.211205,-20.856245 9.641262,-38.549347 9.844571,-39.318005 l 0.369653,-1.397559 h 9.256818 9.256816 L 44.658625,98.48135 c -5.211204,20.85624 -9.641261,38.54935 -9.84457,39.318 l -0.369653,1.39756 h -9.256818 -9.256818 z"
       id="path897" />
    <path
       style="fill:#000000;stroke-width:0.372683"
       d="m 73.265362,69.791104 c 4.069283,-16.247767 7.40358,-29.751028 7.409546,-30.007247 0.0085,-0.367 -4.210489,-0.465853 -19.88252,-0.465853 H 40.899016 l 2.307383,-9.223892 2.307383,-9.223892 49.264002,-0.09454 c 27.095196,-0.052 49.264006,-0.0077 49.264006,0.09851 0,0.106177 -1.02714,4.299472 -2.28252,9.318432 l -2.28252,9.125384 H 119.45818 99.439603 l -7.429672,29.90777 -7.429671,29.907771 -9.356798,0.09948 -9.356798,0.09948 z"
       id="path936" />
    <path
       style="fill:#000000;stroke-width:0.372683"
       d="m 56.088716,138.81061 c 0,-0.32699 2.972653,-12.44771 4.131798,-16.84703 l 0.367381,-1.39433 19.979999,-0.0964 19.979996,-0.0964 7.51481,-29.814603 7.5148,-29.8146 9.20093,-0.09968 c 6.07682,-0.06583 9.20093,0.02952 9.20093,0.280833 0,0.209282 -4.38134,17.905314 -9.73631,39.32451 l -9.7363,38.944 H 85.297732 c -19.910836,0 -29.209016,-0.12297 -29.209016,-0.3863 z"
       id="path975" />
    <path
       style="fill:none;stroke:#000000;stroke-width:1px;stroke-linecap:butt;stroke-linejoin:miter;stroke-opacity:1"
       d="M 0,160 V 0 h 160 v 160 z"
       id="path1306" />
    <path
       style="fill:#ffffff;stroke-width:0.372683"
       d="M 0.55902375,79.940396 V 0.55902375 H 24.783386 c 16.470562,0 24.224363,0.12364919 24.224363,0.38630371 0,0.32715064 -2.973429,12.45080354 -4.132669,16.85026154 l -0.368251,1.39756 h -4.830506 c -4.582054,0 -4.830509,0.03834 -4.830509,0.745365 0,0.705949 0.248455,0.745365 4.698404,0.745365 3.600769,0 4.658762,0.108832 4.528711,0.465853 -0.09333,0.256219 -1.155826,4.448897 -2.361107,9.317062 l -2.191415,8.85121 h -9.790946 c -9.542492,0 -9.790947,0.01891 -9.790947,0.745365 0,0.739104 0.248455,0.745365 29.583119,0.745365 h 29.583116 l -2.305984,9.223891 -2.305985,9.223892 -2.307404,0.110955 c -1.717947,0.08261 -2.307407,0.249221 -2.307407,0.652195 0,0.407591 0.506136,0.541239 2.049753,0.541239 1.166232,0 2.049754,0.166511 2.049754,0.386304 0,0.326272 -2.969184,12.433851 -4.127947,16.832727 L 69.486,79.159965 67.170121,79.270667 c -1.856429,0.08874 -2.340528,0.240097 -2.44012,0.7629 -0.107474,0.564189 0.186565,0.652194 2.179052,0.652194 1.684685,0 2.257722,0.125117 2.133604,0.465853 -0.09333,0.256219 -1.155827,4.448897 -2.361108,9.317063 l -2.191414,8.851209 h -2.337297 c -2.088841,0 -2.337297,0.07923 -2.337297,0.745364 0,0.7331 0.248456,0.74537 15.093641,0.74537 14.845185,0 15.093641,-0.0123 15.093641,-0.74537 0,-0.65674 -0.248456,-0.745364 -2.089627,-0.745364 -1.513746,0 -2.042859,-0.128385 -1.919933,-0.465853 0.09333,-0.256219 1.155826,-4.448898 2.361107,-9.317063 l 2.191415,-8.851209 h 2.337297 c 2.08884,0 2.337296,-0.07923 2.337296,-0.745365 0,-0.655019 -0.248456,-0.745365 -2.049753,-0.745365 -1.166232,0 -2.049754,-0.166511 -2.049754,-0.386304 0,-0.327152 2.973429,-12.450804 4.132669,-16.850262 l 0.368251,-1.397559 h 2.221728 c 1.726418,0 2.221731,-0.124629 2.221731,-0.559024 0,-0.429151 -0.476205,-0.559023 -2.049753,-0.559023 -1.127364,0 -2.049754,-0.08626 -2.049754,-0.191679 0,-0.105424 1.027132,-4.298102 2.282517,-9.317062 l 2.28252,-9.125384 h 24.73696 c 24.48851,0 24.73697,-0.0075 24.73697,-0.745365 0,-0.703957 -0.24846,-0.745365 -4.47219,-0.745365 -2.83814,0 -4.47219,-0.14115 -4.47219,-0.386304 0,-0.327152 2.97342,-12.450804 4.13266,-16.850262 l 0.36826,-1.397559 h 4.8305 c 4.58205,0 4.83051,-0.03834 4.83051,-0.745365 0,-0.70595 -0.24846,-0.745365 -4.6984,-0.745365 -3.60077,0 -4.65877,-0.108832 -4.52871,-0.465853 0.0933,-0.25622 1.15582,-4.448898 2.3611,-9.3170629 l 2.19142,-8.85120935 h 4.38705 4.38705 V 79.940396 159.32177 h -24.26424 c -19.25343,0 -24.22919,-0.0962 -24.09454,-0.46585 0.0933,-0.25622 1.15583,-4.4489 2.36111,-9.31707 l 2.19141,-8.85121 h 4.75974 c 4.51127,0 4.75973,-0.0389 4.75973,-0.74536 0,-0.70396 -0.24846,-0.74537 -4.47219,-0.74537 -2.83814,0 -4.47219,-0.14115 -4.47219,-0.3863 0,-0.32715 2.97343,-12.45081 4.13267,-16.85026 l 0.36825,-1.39756 h 4.8305 c 4.04533,0 4.83051,-0.0909 4.83051,-0.55903 0,-0.46709 -0.76607,-0.55902 -4.65853,-0.55902 -2.56219,0 -4.65853,-0.0863 -4.65853,-0.19168 0,-0.10542 1.02713,-4.2981 2.28252,-9.31706 l 2.28252,-9.12538 h 4.79844 c 4.55,0 4.79846,-0.0386 4.79846,-0.74537 0,-0.705222 -0.24846,-0.745364 -4.6134,-0.745364 h -4.61338 l 2.30712,-9.223892 2.30711,-9.223892 7.33749,-0.101049 c 7.02886,-0.0968 7.33748,-0.132067 7.33748,-0.838536 0,-0.708983 -0.27366,-0.737486 -7.08096,-0.737486 -3.89454,0 -7.08097,-0.08626 -7.08097,-0.191678 0,-0.105425 1.02713,-4.298103 2.28251,-9.317063 l 2.28252,-9.125384 h 4.79845 c 4.01684,0 4.79845,-0.09106 4.79845,-0.559024 0,-0.467142 -0.76685,-0.559023 -4.66563,-0.559023 h -4.66563 l 0.26225,-1.024877 c 0.4261,-1.665187 0.34827,-2.515607 -0.23022,-2.515607 -0.3325,0 -0.6986,0.646723 -0.94936,1.677071 l -0.40815,1.677071 -9.36839,0.09952 -9.3684,0.09952 0.34849,-1.215105 c 0.49408,-1.722733 0.43278,-2.524417 -0.19302,-2.524417 -0.48816,0 -1.31438,2.041398 -1.31982,3.260971 -0.001,0.324689 -0.73613,0.465854 -2.42452,0.465854 -1.90482,0 -2.42243,0.119448 -2.42243,0.559023 0,0.433516 0.49189,0.559024 2.19095,0.559024 h 2.19095 l -2.30598,9.223892 -2.30598,9.223892 -2.30741,0.110955 c -2.00227,0.09628 -2.30741,0.20717 -2.30741,0.838535 0,0.63346 0.26516,0.727581 2.04976,0.727581 1.12736,0 2.04975,0.08626 2.04975,0.191678 0,0.105424 -1.02713,4.298103 -2.28252,9.317063 l -2.28252,9.125384 h -2.37601 c -2.127555,0 -2.376012,0.07794 -2.376012,0.745363 0,0.66084 0.248457,0.74537 2.190952,0.74537 h 2.19096 l -2.30721,9.22389 -2.307207,9.22389 -9.243525,0.0998 -9.243525,0.0998 0.261829,-1.40416 c 0.144004,-0.7723 0.289004,-1.56191 0.322225,-1.75472 0.03321,-0.1928 -0.214278,-0.41111 -0.549998,-0.48513 -0.461642,-0.10178 -0.720466,0.32424 -1.062048,1.74811 l -0.45165,1.88269 h -9.309505 -9.3095 l 0.269494,-1.21122 c 0.431659,-1.94006 0.387727,-2.29265 -0.303442,-2.43548 -0.35987,-0.0744 -0.653126,0.0863 -0.654274,0.3584 -0.0011,0.27125 -0.176734,1.12208 -0.390199,1.89074 -0.381746,1.37461 -0.418436,1.39756 -2.234015,1.39756 -1.392342,0 -1.845896,0.13736 -1.845896,0.55902 0,0.4141 0.434797,0.55903 1.677071,0.55903 0.922389,0 1.677071,0.0863 1.677071,0.19168 0,0.10542 -1.027132,4.2981 -2.282516,9.31706 l -2.28252,9.12538 h -2.376012 c -2.127558,0 -2.376014,0.0779 -2.376014,0.74537 0,0.66084 0.248456,0.74536 2.190955,0.74536 h 2.190952 l -2.307214,9.2239 -2.30721,9.22389 -9.343583,0.0995 -9.343581,0.0995 2.307561,-9.23019 2.307561,-9.23021 2.307406,-0.11095 c 2.002266,-0.0963 2.307408,-0.20717 2.307408,-0.83854 0,-0.63346 -0.265157,-0.72758 -2.049754,-0.72758 -1.127365,0 -2.049754,-0.0863 -2.049754,-0.19167 0,-0.10543 1.027133,-4.29811 2.282516,-9.31707 l 2.282521,-9.12538 h 2.376011 c 1.863558,0 2.376015,-0.12057 2.376015,-0.55903 0,-0.43588 -0.50134,-0.55902 -2.275969,-0.55902 -1.66282,0 -2.230251,-0.1255 -2.106274,-0.46585 0.09333,-0.25622 1.155826,-4.4489 2.361107,-9.31706 l 2.191414,-8.85121 h 2.337297 c 2.088841,0 2.337297,-0.0792 2.337297,-0.74537 0,-0.655017 -0.248456,-0.745363 -2.049754,-0.745363 -1.166231,0 -2.049753,-0.166511 -2.049753,-0.386304 0,-0.327152 2.973428,-12.450804 4.132668,-16.850262 l 0.368252,-1.397559 h 2.435398 c 2.118253,0 2.419235,-0.08493 2.31128,-0.652194 -0.09819,-0.515931 -0.577852,-0.675748 -2.295788,-0.764931 -1.492112,-0.07746 -2.120917,-0.252385 -2.009485,-0.559024 0.0892,-0.245456 1.14832,-4.429331 2.353602,-9.297497 l 2.191414,-8.851209 h 2.337297 c 1.82914,0 2.337297,-0.121539 2.337297,-0.559024 0,-0.434063 -0.494021,-0.559023 -2.210078,-0.559023 h -2.210082 l 0.346669,-1.20886 c 0.492291,-1.716531 0.430273,-2.518066 -0.194842,-2.518066 -0.488162,0 -1.314384,2.041398 -1.319825,3.260971 -0.0015,0.360243 -2.120977,0.465854 -9.348756,0.465854 h -9.346672 l 0.269493,-1.211219 c 0.43166,-1.940065 0.387731,-2.292653 -0.30344,-2.435483 -0.359869,-0.07437 -0.653127,0.08628 -0.654273,0.358405 -0.0012,0.271245 -0.176733,1.12208 -0.3902,1.890737 l -0.388122,1.39756 h -4.827355 c -4.042527,0 -4.827355,0.09089 -4.827355,0.559023 0,0.467348 0.7705,0.559024 4.698404,0.559024 3.600771,0 4.658761,0.108831 4.528712,0.465853 -0.09333,0.256219 -1.155828,4.448897 -2.361106,9.317063 l -2.191415,8.851209 h -4.759733 c -4.511279,0 -4.759734,0.03891 -4.759734,0.745365 0,0.705223 0.248455,0.745365 4.61339,0.745365 h 4.61339 l -2.30712,9.223892 -2.307119,9.223892 -7.337484,0.101049 c -7.028859,0.0968 -7.3374848,0.132067 -7.3374848,0.838536 0,0.70898 0.2736698,0.73749 7.0809678,0.73749 3.894532,0 7.080967,0.0863 7.080967,0.19167 0,0.10543 -1.027133,4.29811 -2.282517,9.31707 l -2.282518,9.12538 h -4.79845 c -4.016834,0 -4.7984498,0.0911 -4.7984498,0.55902 0,0.46735 0.7704998,0.55903 4.6984038,0.55903 3.600771,0 4.658761,0.10883 4.528713,0.46585 -0.09333,0.25622 -1.154684,4.44429 -2.358562,9.30682 l -2.188869,8.84097 -4.8508488,0.10341 c -4.2753842,0.0911 -4.8656894,0.18079 -4.9759468,0.75561 -0.1137807,0.59319 0.2988362,0.65219 4.5607595,0.65219 2.9856001,0 4.6858581,0.14017 4.6858581,0.38631 0,0.32715 -2.973427,12.4508 -4.132668,16.85026 l -0.3682516,1.39756 H 5.0168491 0.55902375 Z"
       id="path1345" />
    <path
       style="fill:#ffffff;stroke-width:0.372683"
       d="m 10.994134,159.13009 c 0,-0.10542 1.027133,-4.2981 2.282517,-9.31706 l 2.282518,-9.12539 h 9.310513 c 7.290457,0 9.273695,0.10108 9.14082,0.46586 -0.09333,0.25622 -1.155828,4.44889 -2.361106,9.31706 l -2.191415,8.85121 h -9.231923 c -5.077559,0 -9.231924,-0.0863 -9.231924,-0.19168 z"
       id="path1421" />
    <path
       style="fill:#ffffff;stroke-width:0.372683"
       d="m 50.961107,158.85592 c 0.09333,-0.25622 1.155829,-4.4489 2.361107,-9.31707 l 2.191415,-8.85121 h 9.231923 c 5.077558,0 9.231924,0.0953 9.231924,0.2117 0,0.23909 -3.54497,14.87098 -4.124736,17.02487 l -0.376183,1.39756 h -9.342571 c -7.316104,0 -9.305763,-0.10105 -9.172879,-0.46585 z"
       id="path1460" />
    <path
       style="fill:#ffffff;stroke-width:0.372683"
       d="m 70.996016,159.13009 c 0,-0.10542 1.027133,-4.2981 2.282517,-9.31706 l 2.282518,-9.12539 h 9.310513 c 7.290457,0 9.273695,0.10108 9.140821,0.46586 -0.09333,0.25622 -1.155829,4.44889 -2.361107,9.31706 l -2.191415,8.85121 H 80.22794 c -5.077558,0 -9.231924,-0.0863 -9.231924,-0.19168 z"
       id="path1499" />
    <path
       style="fill:#ffffff;stroke-width:0.372683"
       d="m 93.144105,150.10418 2.308791,-9.2302 9.343584,-0.0995 9.34358,-0.0995 -2.30879,9.2302 -2.30879,9.2302 -9.34358,0.0995 -9.343585,0.0995 z"
       id="path1538" />
    <path
       style="fill:#ffffff;stroke-width:0.372683"
       d="m 46.026289,19.00147 c 0,-0.105424 1.027132,-4.298102 2.282517,-9.317063 l 2.282517,-9.12538325 h 9.310513 c 7.290458,0 9.273696,0.1010738 9.140821,0.46585315 -0.09333,0.2562192 -1.155828,4.4488973 -2.361107,9.3170621 l -2.191414,8.85121 h -9.231924 c -5.077558,0 -9.231923,-0.08626 -9.231923,-0.191679 z"
       id="path1577" />
    <path
       style="fill:#ffffff;stroke-width:0.372683"
       d="m 68.174378,9.9755645 2.30879,-9.2301995 9.343582,-0.0994784 9.343582,-0.0994784 -2.30879,9.2301997 -2.308791,9.2301991 -9.343582,0.09948 -9.343582,0.09948 z"
       id="path1616" />
    <path
       style="fill:#ffffff;stroke-width:0.372683"
       d="m 85.993262,18.727296 c 0.09333,-0.25622 1.155829,-4.448898 2.361107,-9.3170629 l 2.191414,-8.85120935 h 9.231924 c 5.077563,0 9.231923,0.0952614 9.231923,0.21169193 0,0.23909712 -3.54497,14.87098332 -4.12474,17.02487332 l -0.37618,1.39756 h -9.342569 c -7.316104,0 -9.305763,-0.101047 -9.172879,-0.465853 z"
       id="path1655" />
    <path
       style="fill:#ffffff;stroke-width:0.372683"
       d="m 106.02817,19.00147 c 0,-0.105424 1.02713,-4.298102 2.28252,-9.317063 l 2.28252,-9.12538325 h 9.31051 c 7.29046,0 9.27369,0.1010738 9.14082,0.46585315 -0.0933,0.2562192 -1.15583,4.4488973 -2.36111,9.3170621 l -2.19141,8.85121 h -9.23193 c -5.07755,0 -9.23192,-0.08626 -9.23192,-0.191679 z"
       id="path1694" />
    <path
       style="fill:#cccccc;stroke-width:0.372683"
       d="m 128.17626,9.9755645 2.30879,-9.2301995 9.34358,-0.0994784 9.34358,-0.0994784 -2.30879,9.2301997 -2.30879,9.2301991 -9.34358,0.09948 -9.34358,0.09948 z"
       id="path1733" />
    <path
       style="fill:#cccccc;stroke-width:0.372683"
       d="M 0.55902375,79.891776 V 0.43812857 L 24.484804,0.69690394 C 37.643985,0.83923038 48.494021,1.0391155 48.595998,1.1410931 48.697975,1.2430707 47.784169,5.3045745 46.565314,10.166657 l -2.216097,8.84015 -4.751702,0.104306 c -4.3056,0.09451 -4.751701,0.167884 -4.751701,0.781525 0,0.602394 0.479198,0.7029 4.337036,0.909648 2.385373,0.127834 4.404694,0.300082 4.487385,0.38277 0.121453,0.121454 -2.340186,10.387964 -4.01271,16.735388 l -0.368251,1.39756 h -9.702707 c -9.040058,0 -9.69413,0.04454 -9.577127,0.652194 0.118146,0.613584 1.862758,0.657844 29.469245,0.747623 16.139016,0.05248 29.343663,0.184396 29.343663,0.293134 0,0.186796 -3.34307,13.665048 -4.132668,16.661662 -0.341571,1.296312 -0.468458,1.397928 -1.751444,1.402646 -3.370667,0.01241 -4.261214,1.230307 -1.196855,1.636807 1.024877,0.135954 1.863413,0.441867 1.863413,0.679806 0,0.237936 -0.937781,4.257797 -2.083959,8.933028 -2.294323,9.358479 -1.936958,8.740564 -5.18025,8.957133 -1.016778,0.0679 -1.523466,0.288695 -1.600846,0.69761 -0.08796,0.464869 0.317362,0.649272 1.817684,0.826964 1.061993,0.125776 1.998842,0.296633 2.081891,0.379677 0.12196,0.121965 -2.336,10.375187 -4.012062,16.736039 l -0.368251,1.397559 h -2.221728 c -1.973276,0 -2.221732,0.08335 -2.221732,0.745364 0,0.7331 0.248456,0.74537 15.093641,0.74537 14.498784,0 15.093641,-0.0275 15.093641,-0.69736 0,-0.555405 -0.37929,-0.747665 -1.863412,-0.944538 -1.024877,-0.135954 -1.863413,-0.331397 -1.863413,-0.434317 0,-0.179081 3.367418,-13.746867 4.132669,-16.651085 l 0.368252,-1.397559 h 2.221728 c 1.922288,0 2.221731,-0.09399 2.221731,-0.697352 0,-0.556877 -0.381392,-0.747944 -1.893331,-0.948511 l -1.893331,-0.251158 0.234219,-1.386342 c 0.128822,-0.762486 1.106603,-4.821822 2.172844,-9.020746 l 1.938623,-7.634405 2.142925,-0.111767 c 2.774123,-0.14469 2.949853,-0.98955 0.279511,-1.343785 -1.101873,-0.14617 -1.853413,-0.432331 -1.838942,-0.700207 0.01345,-0.249161 0.982596,-4.310282 2.153643,-9.024716 l 2.129171,-8.571697 24.6795,-0.09583 c 23.69324,-0.092 24.6795,-0.123272 24.6795,-0.782506 0,-0.611132 -0.45904,-0.714552 -4.17268,-0.940103 -2.29498,-0.139387 -4.25654,-0.337285 -4.35903,-0.439773 -0.10248,-0.102488 0.81091,-4.164408 2.02976,-9.026491 l 2.2161,-8.84015 4.7517,-0.104305 c 4.30616,-0.09453 4.7517,-0.167825 4.7517,-0.781738 0,-0.601936 -0.48517,-0.705142 -4.35347,-0.926076 -2.3944,-0.136755 -4.41372,-0.308906 -4.48738,-0.382559 -0.10863,-0.108631 2.45066,-10.7284332 4.02914,-16.7189589 l 0.36825,-1.39755935 h 4.27148 4.27149 V 80.001326 159.44363 l -23.92041,-0.25388 c -13.15622,-0.13964 -23.98017,-0.31365 -24.05321,-0.3867 -0.10777,-0.10776 2.45843,-10.75262 4.03024,-16.71785 l 0.36826,-1.39756 h 4.64416 c 4.26989,0 4.64417,-0.0555 4.64417,-0.68933 0,-0.61453 -0.45285,-0.71684 -4.17268,-0.94277 -2.29498,-0.13938 -4.25654,-0.33728 -4.35902,-0.43977 -0.10249,-0.10249 0.8109,-4.16441 2.02975,-9.02649 l 2.2161,-8.84015 4.7517,-0.10431 c 3.64086,-0.0799 4.7517,-0.2196 4.7517,-0.5975 0,-0.36623 -1.12447,-0.56042 -4.36807,-0.75434 -2.40244,-0.14363 -4.4272,-0.32028 -4.49947,-0.39254 -0.0723,-0.0723 0.8499,-4.13012 2.04926,-9.01744 l 2.18065,-8.88604 4.74125,-0.10431 c 4.43354,-0.0975 4.74126,-0.15196 4.74126,-0.83853 0,-0.689732 -0.27107,-0.734234 -4.47219,-0.734234 -2.45971,0 -4.47219,-0.08998 -4.47219,-0.199963 0,-0.188447 3.33793,-13.647808 4.13266,-16.66392 l 0.36826,-1.39756 4.73733,-0.0026 c 6.95223,-0.0039 9.76855,-0.324678 9.76855,-1.112569 0,-0.565006 -0.74566,-0.663517 -6.78955,-0.896969 -3.73426,-0.144243 -6.84911,-0.321815 -6.92191,-0.394611 -0.0728,-0.07279 0.84895,-4.131074 2.0483,-9.018395 l 2.18066,-8.886044 4.74125,-0.104306 c 3.87587,-0.08527 4.74125,-0.204305 4.74125,-0.652194 0,-0.451606 -0.78542,-0.547888 -4.46938,-0.547888 h -4.46938 l 0.0904,-1.770242 c 0.11933,-2.337607 -0.81222,-2.451144 -1.5289,-0.186342 l -0.50122,1.583901 -7.69779,0.0041 c -4.23379,0.0022 -8.3213,0.107172 -9.08335,0.233153 l -1.38554,0.229051 0.23076,-1.948421 c 0.21027,-1.775374 0.16783,-1.936682 -0.47787,-1.81625 -0.48848,0.09111 -0.81624,0.616995 -1.05502,1.692765 l -0.34639,1.560597 -2.35556,0.252258 c -1.63566,0.175168 -2.35555,0.409838 -2.35555,0.767871 0,0.376521 0.55291,0.515606 2.04975,0.515606 1.12736,0 2.04975,0.08998 2.04975,0.199963 0,0.188447 -3.33793,13.647808 -4.13267,16.66392 -0.34157,1.296313 -0.46845,1.397928 -1.75144,1.402647 -2.05166,0.0076 -3.06027,0.372861 -3.06027,1.108413 0,0.503248 0.42928,0.710832 1.86342,0.901076 1.10187,0.14617 1.85341,0.43233 1.83894,0.700207 -0.0135,0.24916 -0.98199,4.310282 -2.15228,9.024715 l -2.12781,8.571698 -2.31991,0.110955 c -2.014666,0.09635 -2.319912,0.206686 -2.319912,0.838542 0,0.63345 0.265157,0.72758 2.049752,0.72758 1.12737,0 2.04535,0.12578 2.03997,0.27951 -0.0167,0.47765 -4.380138,17.65156 -4.518247,17.7833 -0.07178,0.0685 -4.170313,0.18308 -9.107864,0.25472 l -8.977363,0.13025 0.303606,-1.30439 c 0.450338,-1.93481 0.394734,-2.23609 -0.412701,-2.23609 -0.55488,0 -0.860054,0.43215 -1.250078,1.77024 l -0.51599,1.77024 -9.147037,0.0996 -9.147037,0.0996 0.385931,-1.52044 c 0.270921,-1.06734 0.26706,-1.63933 -0.01293,-1.91933 -0.703763,-0.70376 -1.454696,-0.034 -1.703033,1.51906 -0.237793,1.48709 -0.269885,1.51391 -2.102492,1.75701 -2.259559,0.29974 -2.463461,1.0773 -0.370278,1.41201 0.831175,0.13291 1.479903,0.44254 1.466259,0.69983 -0.01345,0.2538 -0.981984,4.31871 -2.152275,9.03314 l -2.127808,8.5717 -2.319911,0.11096 c -2.01467,0.0964 -2.319915,0.20668 -2.319915,0.83853 0,0.63346 0.265156,0.72758 2.049754,0.72758 1.127364,0 2.049753,0.09 2.049753,0.19997 0,0.18703 -3.33202,13.62458 -4.124727,16.63442 l -0.360309,1.36807 -9.031126,0.12541 c -4.967122,0.069 -9.079892,0.10337 -9.139491,0.0764 -0.08958,-0.0405 2.726934,-11.59505 4.054688,-16.63404 0.341574,-1.29632 0.468459,-1.39793 1.751447,-1.40265 2.051649,-0.008 3.060255,-0.37286 3.060255,-1.10841 0,-0.50325 -0.429278,-0.71084 -1.863413,-0.90108 -1.101873,-0.14617 -1.853412,-0.43233 -1.838942,-0.70021 0.01346,-0.24916 0.981985,-4.31028 2.152275,-9.02471 l 2.127808,-8.5717 2.319912,-0.11096 c 2.961014,-0.14161 3.220491,-0.98295 0.405963,-1.31629 -1.052676,-0.12467 -1.9819,-0.29462 -2.064948,-0.37767 -0.121961,-0.12196 2.336,-10.37518 4.012061,-16.73603 l 0.368251,-1.39756 h 2.221728 c 1.922289,0 2.221732,-0.094 2.221732,-0.69736 0,-0.556875 -0.381392,-0.747942 -1.893331,-0.948509 l -1.893332,-0.251158 0.23422,-1.386342 c 0.128821,-0.762486 1.106602,-4.821822 2.172843,-9.020746 l 1.938624,-7.634405 2.35305,-0.11157 c 1.980781,-0.09392 2.333872,-0.211844 2.231843,-0.745365 -0.08647,-0.452138 -0.622879,-0.691616 -1.871534,-0.835528 -0.962679,-0.110955 -1.848065,-0.299473 -1.967521,-0.418932 -0.174408,-0.174408 1.965487,-9.28651 3.945854,-16.802242 l 0.368252,-1.397559 h 2.221728 c 1.726418,0 2.221732,-0.124629 2.221732,-0.559024 0,-0.428562 -0.474254,-0.559023 -2.032197,-0.559023 H 56.123834 L 56.34905,57.54125 c 0.203607,-1.719125 0.158282,-1.888714 -0.472301,-1.767275 -0.447185,0.08612 -0.84682,0.668283 -1.113519,1.622093 l -0.415996,1.487767 -3.880963,0.233843 c -2.134527,0.128617 -6.257268,0.254397 -9.161642,0.279512 l -5.280686,0.04567 0.369514,-1.33827 c 0.440018,-1.593612 0.179188,-2.489027 -0.67666,-2.32293 -0.390477,0.07578 -0.77238,0.744963 -1.026004,1.797787 l -0.404003,1.677071 -4.751702,0.104307 c -3.629311,0.07966 -4.751702,0.220255 -4.751702,0.595181 0,0.364614 1.115581,0.550665 4.337039,0.723306 2.385371,0.127838 4.404692,0.300084 4.487381,0.382771 0.121454,0.121457 -2.340186,10.387966 -4.012708,16.73539 l -0.368251,1.397559 H 24.58268 c -4.395711,0 -4.644166,0.03988 -4.644166,0.745365 0,0.703956 0.248455,0.745365 4.47219,0.745365 2.459704,0 4.47219,0.08998 4.47219,0.199963 0,0.188447 -3.337934,13.647808 -4.132668,16.66392 l -0.368252,1.397559 h -4.96218 c -6.929622,0 -9.5437078,0.305235 -9.5437078,1.114376 0,0.56605 0.7421858,0.66418 6.7895528,0.89777 3.734254,0.14424 6.849112,0.32181 6.921907,0.39461 0.07279,0.0728 -0.848941,4.13107 -2.0483,9.0184 l -2.180653,8.88604 -4.741253,0.10431 c -3.620669,0.0796 -4.7412538,0.22032 -4.7412538,0.59518 0,0.36461 1.1155808,0.55066 4.3370388,0.7233 2.385371,0.12784 4.404584,0.29998 4.487139,0.38253 0.192037,0.19204 -3.875416,16.64255 -4.299208,17.38783 -0.245926,0.43248 -1.362513,0.6012 -4.932838,0.74536 -3.8327808,0.15476 -4.6342066,0.2871 -4.7285318,0.78081 -0.096628,0.50577 0.5384297,0.63171 4.2561023,0.84404 2.4033225,0.13727 4.4560305,0.33593 4.5615725,0.44147 0.105543,0.10554 -0.805348,4.16997 -2.024201,9.03205 l -2.2160975,8.84015 -4.3790194,0.105 -4.37901935,0.10499 z"
       id="path1809" />
    <path
       style="fill:#cccccc;stroke-width:0.372683"
       d="m 15.186812,159.04379 c -2.700127,-0.0854 -3.812822,-0.25353 -3.795525,-0.57359 0.01346,-0.24905 0.984239,-4.31008 2.157289,-9.02452 l 2.132818,-8.5717 8.892286,0.0865 c 4.890757,0.0476 8.958027,0.15224 9.038377,0.23259 0.118128,0.11813 -2.367934,10.47289 -4.016959,16.73114 l -0.368251,1.39756 -5.11002,-0.0786 c -2.810511,-0.0432 -6.829018,-0.13295 -8.930015,-0.19938 z"
       id="path1848" />
    <path
       style="fill:#cccccc;stroke-width:0.372683"
       d="m 54.691157,159.0487 c -1.896023,-0.0702 -3.447313,-0.21127 -3.447313,-0.31356 0,-0.1808 3.380054,-13.79486 4.147098,-16.70353 l 0.382683,-1.45115 8.821208,0.26978 c 4.851664,0.14838 8.883783,0.33236 8.960263,0.40884 0.07648,0.0765 -0.845365,4.12995 -2.048547,9.0077 l -2.187604,8.86865 -5.590238,0.0204 c -3.07463,0.0112 -7.141528,-0.037 -9.03755,-0.10715 z"
       id="path1887" />
    <path
       style="fill:#cccccc;stroke-width:0.372683"
       d="m 75.188694,159.04379 c -2.700127,-0.0854 -3.812822,-0.25353 -3.795525,-0.57359 0.01346,-0.24905 0.984239,-4.31008 2.157289,-9.02452 l 2.132818,-8.5717 8.892286,0.0865 c 4.890757,0.0476 8.958027,0.15224 9.038377,0.23259 0.118129,0.11813 -2.367934,10.47289 -4.016958,16.73114 l -0.368252,1.39756 -5.11002,-0.0786 c -2.81051,-0.0432 -6.829017,-0.13295 -8.930015,-0.19938 z"
       id="path1926" />
    <path
       style="fill:#cccccc;stroke-width:0.372683"
       d="m 91.130457,158.94909 c 0.02354,-0.43952 4.400253,-17.57768 4.518448,-17.69318 0.211283,-0.20646 18.206955,-0.3999 18.196015,-0.19558 -0.0235,0.43951 -4.40026,17.57767 -4.51845,17.69317 -0.21128,0.20647 -18.206958,0.3999 -18.196013,0.19559 z"
       id="path1965" />
    <path
       style="fill:#cccccc;stroke-width:0.372683"
       d="M 0.55902375,79.868345 V 0.5455344 L 17.981931,0.74886881 C 43.62217,1.0481037 48.265365,1.2395166 48.249794,1.9966431 48.242874,2.333317 47.352077,6.2144807 46.270247,10.621451 l -1.966963,8.012674 -4.076539,0.232098 c -2.242099,0.127655 -4.382327,0.253435 -4.756064,0.279512 -0.432429,0.03017 -0.634246,0.282507 -0.555011,0.693938 0.14486,0.752198 1.956096,1.160051 5.33404,1.201117 1.229852,0.01495 2.458478,0.168175 2.730283,0.340496 0.395643,0.250835 0.06501,2.0704 -1.658076,9.125014 l -2.15226,8.811704 h -9.615571 c -8.059245,0 -9.615572,0.08568 -9.615572,0.529362 0,0.837585 2.626182,0.928396 31.409968,1.086145 14.713289,0.08064 26.851841,0.247018 26.974561,0.369739 0.122721,0.122717 -0.737318,4.07134 -1.911194,8.774712 -2.322706,9.306408 -2.141694,8.975097 -4.910107,8.987127 -1.00227,0.0044 -1.623773,0.515539 -1.623773,1.335552 0,0.0833 0.685199,0.261023 1.522665,0.394939 0.837466,0.133916 1.609015,0.468511 1.714555,0.743543 0.201864,0.526053 -2.076121,10.590735 -3.304069,14.598179 -0.769216,2.510352 -1.430839,3.057729 -3.695933,3.057729 -0.652589,0 -1.195893,0.235606 -1.326168,0.575098 -0.300367,0.782741 -0.06546,0.94504 1.713113,1.183598 0.841827,0.112912 1.618076,0.346841 1.724995,0.51984 0.106919,0.172999 -0.769083,4.259191 -1.94667,9.080432 l -2.141072,8.765887 h -2.16192 c -1.913468,0 -2.161924,0.08566 -2.161924,0.745364 0,0.7331 0.248456,0.74537 15.093641,0.74537 14.815281,0 15.093641,-0.0137 15.093641,-0.74096 0,-0.576954 -0.331799,-0.794023 -1.498988,-0.980662 -0.824445,-0.131837 -1.595368,-0.395644 -1.713166,-0.586241 -0.117797,-0.190597 0.76277,-4.277396 1.956811,-9.081769 l 2.170987,-8.735227 h 2.150956 c 1.858102,0 2.150955,-0.09556 2.150955,-0.701899 0,-0.737267 -0.944888,-1.147557 -2.663226,-1.156426 l -0.986155,-0.0051 0.717082,-3.260971 c 0.394395,-1.793535 1.35157,-5.775748 2.127056,-8.849365 l 1.409977,-5.588393 2.017215,-0.290308 c 2.476153,-0.356352 3.085733,-0.849873 1.700326,-1.376604 -0.559161,-0.212593 -1.346416,-0.386531 -1.749453,-0.386531 -0.403042,0 -0.826308,-0.243671 -0.940591,-0.541489 -0.167939,-0.437641 1.837019,-9.292402 3.599711,-15.897875 l 0.35911,-1.345727 24.23952,-0.179204 c 24.24167,-0.179219 25.87227,-0.273076 24.72236,-1.422984 -0.20926,-0.209261 -1.54254,-0.469755 -2.96283,-0.578884 -4.07402,-0.313016 -5.00479,-0.517306 -5.00479,-1.098459 0,-0.505238 2.90223,-12.56871 3.74136,-15.551433 l 0.39318,-1.39756 2.68443,-0.0032 c 4.38083,-0.0053 6.65063,-0.377895 6.51736,-1.069886 -0.13351,-0.693264 -2.05566,-1.10747 -5.32366,-1.147199 -1.22985,-0.01495 -2.45847,-0.168174 -2.73028,-0.340495 -0.39564,-0.250835 -0.065,-2.070401 1.65808,-9.1250147 l 2.15226,-8.81170055 h 4.21167 4.21168 V 79.954681 159.35034 l -16.86388,-0.20414 c -17.99561,-0.21784 -30.53851,-0.51729 -30.75547,-0.73424 -0.0731,-0.0731 0.83389,-4.09095 2.01548,-8.9286 l 2.14836,-8.79572 h 4.37603 c 4.22336,0 5.389,-0.29812 4.52882,-1.15831 -0.1914,-0.1914 -1.51006,-0.43728 -2.93036,-0.54641 -4.07402,-0.31301 -5.00479,-0.5173 -5.00479,-1.09846 0,-0.5008 2.90115,-12.56603 3.72626,-15.49671 l 0.37807,-1.34283 4.49806,-0.20724 c 2.47394,-0.11398 4.59995,-0.30911 4.72446,-0.43362 0.58902,-0.58902 -0.87172,-1.02514 -4.33115,-1.29311 -2.08114,-0.16121 -3.88484,-0.39405 -4.00823,-0.51743 -0.18583,-0.18584 2.39497,-11.62644 3.63951,-16.13381 l 0.35244,-1.27641 h 2.91192 c 4.37581,0 6.42858,-0.35178 6.28989,-1.07788 -0.0924,-0.483993 -0.90109,-0.658177 -4.20602,-0.905989 -2.25037,-0.168739 -4.15582,-0.371035 -4.23433,-0.449552 -0.0785,-0.07852 0.83856,-4.091211 2.03795,-8.917096 l 2.1807,-8.77434 2.43047,-0.0086 c 7.94307,-0.02821 11.18246,-0.207655 11.61775,-0.643563 0.9246,-0.925907 -0.34223,-1.222969 -6.50832,-1.526142 -3.42046,-0.168177 -6.32135,-0.408117 -6.44643,-0.533201 -0.187,-0.186997 2.37944,-11.584515 3.6213,-16.082177 l 0.33733,-1.221691 4.49806,-0.207238 c 2.47394,-0.113984 4.58599,-0.29516 4.69345,-0.402612 0.67858,-0.678569 -0.69813,-0.990314 -4.37345,-0.990314 h -4.07751 l -0.0285,-1.024877 c -0.0371,-1.333656 -0.23315,-2.342466 -0.50876,-2.61808 -0.34527,-0.345268 -1.10023,0.577721 -1.54523,1.889143 l -0.40543,1.19479 -8.81887,0.186341 -8.81886,0.186341 3.7e-4,-1.810115 c 3.3e-4,-1.497565 -0.10138,-1.771054 -0.5891,-1.5839 -0.32423,0.12442 -0.65318,0.226214 -0.731,0.226214 -0.0778,0 -0.32213,0.670829 -0.54291,1.49073 -0.38397,1.425958 -0.46662,1.49073 -1.90228,1.49073 -1.52846,0 -2.94259,0.520529 -2.94259,1.083146 0,0.171359 0.83854,0.422793 1.86341,0.558748 1.02488,0.135954 1.86341,0.411721 1.86341,0.612813 0,0.201092 -0.93949,4.121346 -2.08776,8.711677 -2.27096,9.078355 -2.09957,8.768705 -4.86016,8.780701 -1.07908,0.0047 -1.62377,0.515204 -1.62377,1.521894 0,0.18579 0.6852,0.447364 1.52266,0.58128 0.83747,0.133916 1.60707,0.463424 1.71022,0.732236 0.10315,0.268812 -0.58834,3.641153 -1.53664,7.494082 -2.62767,10.676195 -2.31247,9.80045 -3.52741,9.80045 -2.05364,0 -3.386362,0.439453 -3.386362,1.116621 0,0.49951 0.433122,0.70823 1.863412,0.89796 1.02488,0.13595 1.86341,0.42244 1.86341,0.63662 0,0.21419 -0.94348,4.12489 -2.09663,8.69046 l -2.09663,8.30101 -4.483821,0.2411 c -2.466104,0.1326 -6.440956,0.24109 -8.833,0.24109 H 81.56013 l 0.09595,-1.6996 c 0.0879,-1.55705 0.0278,-1.6899 -0.716698,-1.5839 -0.446955,0.0636 -0.829629,0.2834 -0.850387,0.48838 -0.02076,0.20497 -0.246802,0.91773 -0.502313,1.5839 l -0.464563,1.21122 -7.510365,0.004 c -4.130697,0.002 -8.133855,0.10717 -8.895905,0.23315 l -1.385544,0.22905 0.226237,-1.91022 c 0.210688,-1.77894 0.170893,-1.91022 -0.57903,-1.91022 -0.531956,0 -0.942555,0.34784 -1.209768,1.02487 -0.766582,1.94226 -0.964879,2.13537 -2.50572,2.44008 -1.860718,0.36798 -2.085047,1.29074 -0.395908,1.62857 0.632543,0.12651 1.234433,0.44984 1.337532,0.71851 0.103102,0.26868 -0.588433,3.6409 -1.536738,7.49383 -2.627691,10.6762 -2.312488,9.80045 -3.527429,9.80045 -2.053641,0 -3.386364,0.43945 -3.386364,1.11662 0,0.49951 0.43312,0.70822 1.863412,0.89796 1.024877,0.13595 1.863413,0.41172 1.863413,0.61281 0,0.20109 -0.937834,4.1147 -2.084075,8.69691 l -2.084074,8.33129 -2.853969,0.26184 c -2.948805,0.27055 -14.627588,0.29753 -14.890718,0.0344 -0.08171,-0.0817 0.803523,-4.00123 1.967182,-8.71004 2.304718,-9.32617 2.120695,-8.98851 4.90531,-9.00061 1.079083,-0.005 1.623774,-0.5152 1.623774,-1.52189 0,-0.18579 -0.6852,-0.44737 -1.522666,-0.58128 -0.837466,-0.13392 -1.607061,-0.46343 -1.710214,-0.73224 -0.103153,-0.26881 0.588336,-3.64115 1.536641,-7.49408 2.676122,-10.87297 2.2541,-9.79783 3.853526,-9.81726 0.760757,-0.009 1.886318,-0.24024 2.501244,-0.51332 l 1.118047,-0.49651 -1.049138,-0.41839 c -0.577024,-0.23011 -1.447592,-0.41838 -1.934588,-0.41838 -0.486999,0 -0.986915,-0.16418 -1.110929,-0.36484 -0.124014,-0.20065 0.738001,-4.30948 1.915588,-9.13072 l 2.141072,-8.76588 h 2.16192 c 1.868843,0 2.161924,-0.0952 2.161924,-0.7019 0,-0.737274 -0.944888,-1.147564 -2.663226,-1.156433 l -0.986155,-0.0051 0.717082,-3.260971 c 0.394395,-1.793535 1.3517,-5.776579 2.127346,-8.85121 l 1.410264,-5.590237 2.175445,-0.273061 c 1.196497,-0.150187 2.254967,-0.352587 2.352163,-0.449783 0.533432,-0.533432 -0.447059,-1.305086 -1.943409,-1.529478 -0.93433,-0.14011 -1.69878,-0.431462 -1.69878,-0.64745 0,-0.215988 0.955767,-4.305772 2.123925,-9.088407 l 2.123929,-8.6957 h 2.16192 c 1.673255,0 2.161924,-0.126358 2.161924,-0.559024 0,-0.422372 -0.4555,-0.559023 -1.863413,-0.559023 h -1.863412 v -1.903286 c 0,-1.582432 -0.09938,-1.865149 -0.589506,-1.677071 -0.324226,0.12442 -0.646634,0.226214 -0.716463,0.226214 -0.06983,0 -0.316218,0.573469 -0.547538,1.274373 -0.416495,1.261992 -0.446641,1.276479 -3.103532,1.491289 -1.475625,0.119303 -5.479346,0.258593 -8.897158,0.309528 l -6.214208,0.09261 0.213964,-1.803481 c 0.204562,-1.724234 0.175947,-1.797925 -0.651228,-1.677071 -0.636782,0.09304 -0.999562,0.530998 -1.374171,1.658944 l -0.508979,1.53253 -4.29843,0.189691 c -4.048963,0.178679 -5.632369,0.590572 -4.636452,1.206083 0.230592,0.142514 1.992897,0.352997 3.916233,0.467746 1.923335,0.114749 3.690664,0.328341 3.927397,0.474649 0.30933,0.191178 -0.17508,2.745045 -1.721837,9.077718 l -2.152259,8.811705 h -4.611686 c -4.191115,0 -4.600317,0.05948 -4.487028,0.652194 0.10527,0.550765 0.760978,0.699909 4.216232,0.958991 2.250366,0.168739 4.155815,0.371035 4.234332,0.449552 0.07852,0.07852 -0.836078,4.08122 -2.032431,8.894895 l -2.175188,8.752135 -6.79729,0.115372 c -4.807795,0.08161 -6.933372,0.251724 -7.262225,0.581228 -0.9241277,0.925949 0.342589,1.222969 6.508585,1.526139 3.420452,0.16818 6.324095,0.41087 6.45254,0.53931 0.192584,0.19259 -2.326619,11.36498 -3.613741,16.02655 l -0.35259,1.27697 -4.309162,0.19017 c -4.058484,0.1791 -5.6437018,0.59067 -4.647182,1.20656 0.230592,0.14251 1.992897,0.35299 3.916233,0.46774 1.923335,0.11475 3.699842,0.33401 3.947792,0.48725 0.544791,0.3367 -3.421952,16.70076 -4.158744,17.15613 -0.251157,0.15522 -2.360039,0.40115 -4.6864049,0.54651 -2.3263654,0.14535 -4.3299061,0.42633 -4.4523129,0.62439 -0.4237967,0.68571 0.449369,1.02048 3.2238407,1.23601 1.532845,0.11907 3.3486911,0.30223 4.0352141,0.40702 1.21374,0.18525 1.241272,0.22847 0.996582,1.56425 -0.483419,2.63901 -3.657693,15.53769 -3.8819927,15.7745 -0.1244241,0.13136 -2.1129305,0.31161 -4.4189034,0.40055 l -4.19267815,0.1617 z"
       id="path2004" />
    <path
       style="fill:#cccccc;stroke-width:0.372683"
       d="m 110.22085,18.915172 c -2.70013,-0.08537 -3.81282,-0.253528 -3.79553,-0.573596 0.0135,-0.249049 0.98424,-4.31008 2.15729,-9.0245135 l 2.13282,-8.5716975 8.89229,0.0864979 c 4.89075,0.0475739 8.95802,0.15223916 9.03837,0.2325895 0.11813,0.1181279 -2.36793,10.4728866 -4.01695,16.7311366 l -0.36826,1.39756 -5.11002,-0.0786 c -2.81051,-0.04323 -6.82901,-0.132949 -8.93001,-0.199379 z"
       id="path2043" />
    <path
       style="fill:#cccccc;stroke-width:0.372683"
       d="m 89.723312,18.920076 c -1.896023,-0.07017 -3.447314,-0.21127 -3.447314,-0.313558 0,-0.1808 3.380055,-13.7948564 4.147099,-16.703527 l 0.382682,-1.45115143 8.821208,0.2697844 c 4.851663,0.14838141 8.883783,0.33235943 8.960263,0.40884013 0.0765,0.076481 -0.84536,4.1299456 -2.04855,9.0076999 l -2.1876,8.868643 -5.590238,0.02043 c -3.07463,0.01123 -7.141528,-0.03699 -9.03755,-0.107156 z"
       id="path2082" />
    <path
       style="fill:#cccccc;stroke-width:0.372683"
       d="M 66.160729,18.820466 C 66.184272,18.380954 70.560982,1.2427928 70.679178,1.1272922 70.89046,0.92082653 88.886134,0.72739395 88.87519,0.93170625 88.851648,1.3712182 84.474937,18.50938 84.356742,18.62488 84.145459,18.831346 66.149785,19.024779 66.160729,18.820466 Z"
       id="path2121" />
    <path
       style="fill:#cccccc;stroke-width:0.372683"
       d="m 50.218967,18.915172 c -2.700127,-0.08537 -3.812822,-0.253528 -3.795525,-0.573596 0.01346,-0.249049 0.984238,-4.31008 2.157288,-9.0245135 l 2.132818,-8.5716975 8.892286,0.0864979 c 4.890758,0.0475739 8.958028,0.15223916 9.038378,0.2325895 0.118128,0.1181279 -2.367934,10.4728866 -4.016959,16.7311366 l -0.368251,1.39756 -5.11002,-0.0786 C 56.338471,19.071319 52.319964,18.9816 50.218967,18.91517 Z"
       id="path2160" />
  </g>
</svg>
